<?xml version="1.0" standalone="no"?>
<!DOCTYPE svg PUBLIC "-//W3C//DTD SVG 20010904//EN"
 "http://www.w3.org/TR/2001/REC-SVG-20010904/DTD/svg10.dtd">
<svg version="1.0" xmlns="http://www.w3.org/2000/svg"
 width="225.000000pt" height="225.000000pt" viewBox="0 0 225.000000 225.000000"
 preserveAspectRatio="xMidYMid meet" >

<g transform="translate(0.000000,225.000000) scale(0.100000,-0.100000)"
fill="#0054ff" stroke="none">
<path d="M975 2239 c-229 -29 -448 -135 -621 -301 -110 -106 -172 -189 -234
-313 -157 -318 -157 -683 0 -1000 59 -119 113 -192 218 -298 382 -387 1013
-433 1451 -107 362 270 527 711 431 1150 -48 222 -151 402 -322 566 -250 239
-575 346 -923 303z m581 -1043 c28 -28 34 -41 34 -78 0 -24 -7 -54 -16 -67
-35 -49 -54 -51 -489 -51 -446 0 -460 2 -489 59 -27 51 -21 98 18 137 l34 34
437 0 437 0 34 -34z"/>
</g>
</svg>
