<?xml version="1.0" standalone="no"?>
<!DOCTYPE svg PUBLIC "-//W3C//DTD SVG 20010904//EN"
 "http://www.w3.org/TR/2001/REC-SVG-20010904/DTD/svg10.dtd">
<svg version="1.0" xmlns="http://www.w3.org/2000/svg"
 width="2048.000000pt" height="2048.000000pt" viewBox="0 0 2048.000000 2048.000000"
 preserveAspectRatio="xMidYMid meet">

<g transform="translate(0.000000,2048.000000) scale(0.100000,-0.100000)"
fill="#3b5998" stroke="none">
<path d="M1040 20399 c-95 -12 -233 -54 -328 -99 -344 -163 -584 -496 -632
-872 -14 -115 -14 -18261 0 -18376 64 -504 468 -908 972 -972 56 -7 1679 -10
4980 -10 l4898 0 0 3935 0 3935 -1325 0 -1325 0 0 1540 0 1540 1325 0 1325 0
0 1198 c0 1180 5 1405 35 1692 80 748 321 1428 688 1942 230 322 542 626 857
838 501 336 1118 547 1830 626 307 34 1129 29 1870 -11 402 -22 894 -61 1008
-80 l32 -6 0 -1374 0 -1375 -862 0 c-483 0 -922 -4 -998 -10 -750 -56 -1124
-345 -1239 -956 -38 -201 -41 -302 -41 -1406 l0 -1078 1521 0 1521 0 -6 -27
c-3 -16 -91 -694 -196 -1508 -104 -814 -192 -1495 -195 -1513 l-6 -32 -1319 0
-1320 0 0 -3935 0 -3935 2673 3 2672 2 85 23 c117 31 181 56 278 108 316 167
537 489 582 846 14 115 14 18261 0 18376 -45 357 -266 679 -582 846 -97 52
-161 77 -278 108 l-85 23 -9175 1 c-5046 1 -9204 -2 -9240 -7z"/>
</g>
</svg>
