<?xml version="1.0" standalone="no"?>
<!DOCTYPE svg PUBLIC "-//W3C//DTD SVG 20010904//EN"
 "http://www.w3.org/TR/2001/REC-SVG-20010904/DTD/svg10.dtd">
<svg version="1.0" xmlns="http://www.w3.org/2000/svg"
 width="768.000000pt" height="768.000000pt" viewBox="0 0 768.000000 768.000000"
 preserveAspectRatio="xMidYMid meet">

<g transform="translate(0.000000,768.000000) scale(0.100000,-0.100000)"
fill="#007bb6" stroke="none">
<path d="M741 7669 c-340 -44 -622 -297 -713 -639 l-23 -85 0 -3105 0 -3105
23 -85 c82 -309 313 -540 622 -622 l85 -23 3105 0 3105 0 85 23 c309 82 540
313 622 622 l23 85 0 3105 0 3105 -22 85 c-80 304 -309 534 -618 622 l-80 23
-3075 1 c-1691 1 -3104 -2 -3139 -7z m1174 -1075 c297 -76 505 -349 505 -664
0 -195 -60 -341 -200 -481 -137 -138 -283 -199 -475 -199 -121 0 -192 17 -300
70 -137 67 -232 161 -304 300 -136 261 -88 579 118 789 172 176 418 245 656
185z m3575 -1728 c587 -79 966 -438 1085 -1030 43 -213 46 -344 43 -1596 l-3
-1175 -572 -3 -573 -2 0 1020 c0 656 -4 1055 -11 1116 -38 347 -190 560 -440
619 -85 20 -261 19 -352 -1 -200 -44 -357 -177 -434 -367 -14 -34 -35 -95 -46
-137 -21 -74 -22 -90 -27 -1160 l-5 -1085 -552 -3 -553 -2 0 1855 0 1855 553
-2 552 -3 3 -240 2 -239 37 54 c20 29 72 91 116 137 208 217 478 355 769 392
101 13 295 12 408 -3z m-3165 -1951 l0 -1850 -575 0 -575 0 -3 1840 c-1 1012
0 1846 3 1853 3 10 124 12 577 10 l573 -3 0 -1850z"/>
</g>
</svg>
