<?xml version="1.0" standalone="no"?>
<!DOCTYPE svg PUBLIC "-//W3C//DTD SVG 20010904//EN"
 "http://www.w3.org/TR/2001/REC-SVG-20010904/DTD/svg10.dtd">
<svg version="1.0" xmlns="http://www.w3.org/2000/svg"
 width="840.000000pt" height="827.000000pt" viewBox="0 0 840.000000 827.000000"
 preserveAspectRatio="xMidYMid meet">

<g transform="translate(0.000000,827.000000) scale(0.100000,-0.100000)"
fill="#107EB6" stroke="none">
<path d="M2476 7834 c-136 -33 -275 -143 -335 -265 -32 -66 -61 -178 -61 -239
0 -62 29 -173 62 -240 37 -75 -115 79 1700 -1724 l1238 -1229 -983 -989
c-1608 -1618 -1846 -1860 -1892 -1921 -64 -85 -87 -152 -92 -277 -5 -94 -3
-113 21 -183 61 -180 205 -310 385 -348 78 -16 213 -6 283 21 101 38 168 93
423 352 138 139 849 856 1581 1593 732 737 1357 1369 1389 1405 97 110 135
208 135 350 0 131 -40 244 -118 332 -37 41 -585 587 -2127 2118 -1165 1156
-1172 1164 -1242 1199 -118 59 -246 74 -367 45z"/>
</g>
</svg>
